HIERARCHY
ROOT Hips
{
OFFSET -0.1795 -22.3333 2.8219000000000003
	CHANNELS 6 Xposition Yposition Zposition Zrotation Yrotation Xrotation 
	JOINT LeftUpLeg
	{
OFFSET 6.952 -9.140600000000001 -0.6815
		CHANNELS 3 Zrotation Yrotation Xrotation
		JOINT LeftLeg
		{
OFFSET 3.4277 -37.5199 -0.4496
			CHANNELS 3 Zrotation Yrotation Xrotation
			JOINT LeftFoot
			{
OFFSET -1.3596000000000001 -39.7961 -4.3693
				CHANNELS 3 Zrotation Yrotation Xrotation
				JOINT LeftToe
				{
OFFSET 2.6358 -5.5791 11.9288
					CHANNELS 3 Zrotation Yrotation Xrotation
					End Site
					{
OFFSET 0.0 0.0 0.0
					}
				}
			}
		}
	}
	JOINT RightUpLeg
	{
OFFSET -6.7669999999999995 -9.052200000000001 -0.432
		CHANNELS 3 Zrotation Yrotation Xrotation
		JOINT RightLeg
		{
OFFSET -3.8289999999999997 -38.2569 -0.885
			CHANNELS 3 Zrotation Yrotation Xrotation
			JOINT RightFoot
			{
OFFSET 1.5774 -39.8415 -4.2312
				CHANNELS 3 Zrotation Yrotation Xrotation
				JOINT RightToe
				{
OFFSET -2.5372 -4.8144 12.3348
					CHANNELS 3 Zrotation Yrotation Xrotation
					End Site
					{
OFFSET 0.0 0.0 0.0
					}
				}
			}
		}
	}
	JOINT Spine
	{
OFFSET -0.2533 10.8963 -2.6696
		CHANNELS 3 Zrotation Yrotation Xrotation
		JOINT Spine1
		{
OFFSET 0.5487 13.517999999999999 0.1092
			CHANNELS 3 Zrotation Yrotation Xrotation
			JOINT Spine2
			{
OFFSET 0.1457 5.292199999999999 2.5425
				CHANNELS 3 Zrotation Yrotation Xrotation
				JOINT Neck
				{
OFFSET -0.2778 21.387 -4.2857
					CHANNELS 3 Zrotation Yrotation Xrotation
					JOINT Head
					{
OFFSET 0.5152 6.497 5.1349
						CHANNELS 3 Zrotation Yrotation Xrotation
						End Site
						{
OFFSET 0.0 0.0 0.0
						}
					}
				}
				JOINT LeftShoulder
				{
OFFSET 7.8845 12.1749 -3.4090000000000003
					CHANNELS 3 Zrotation Yrotation Xrotation
					JOINT LeftArm
					{
OFFSET 9.0977 3.0469 -0.8867999999999999
						CHANNELS 3 Zrotation Yrotation Xrotation
						JOINT LeftForeArm
						{
OFFSET 25.9612 -1.2772000000000001 -2.7456
							CHANNELS 3 Zrotation Yrotation Xrotation
							JOINT LeftHand
							{
OFFSET 24.9234 0.8986 -0.1171
								CHANNELS 3 Zrotation Yrotation Xrotation
								End Site
								{
OFFSET 0.0 0.0 0.0
								}
							}
						}
					}
				}
				JOINT RightShoulder
				{
OFFSET -8.1759 11.8833 -3.8614999999999995
					CHANNELS 3 Zrotation Yrotation Xrotation
					JOINT RightArm
					{
OFFSET -9.6012 3.2550999999999997 -0.9143
						CHANNELS 3 Zrotation Yrotation Xrotation
						JOINT RightForeArm
						{
OFFSET -25.374200000000002 -1.3329 -2.1401
							CHANNELS 3 Zrotation Yrotation Xrotation
							JOINT RightHand
							{
OFFSET -25.5298 0.7772 -0.5559
								CHANNELS 3 Zrotation Yrotation Xrotation
								End Site
								{
OFFSET 0.0 0.0 0.0
								}
							}
						}
					}
				}
			}
		}
	}
}
MOTION
Frames: 5
Frame Time: 0.050000
-0.465010 0.663495 5.033817 135.245980 -33.141849 -145.961239 -23.895191 33.967807 -68.377118 46.396714 4.375724 52.884191 -41.105586 -18.099355 40.082938 0.000000 0.000000 0.000000 -121.395618 28.124438 -73.432727 104.059838 17.022475 -0.543297 -75.921653 -79.534477 48.352950 0.000000 0.000000 0.000000 65.611290 22.765368 55.137209 -8.245054 -0.475192 -21.317319 -28.377277 -36.462367 47.188183 -0.975921 -6.104493 -31.826455 0.000000 0.000000 0.000000 19.171500 3.279325 -4.602832 -15.052663 2.633164 -1.333848 -0.575064 -25.279571 5.091291 0.000000 0.000000 0.000000 -6.100298 2.888063 -11.918669 29.360749 -0.604001 -4.764116 3.134814 38.885503 -7.570556 0.000000 0.000000 0.000000 
-0.504419 0.646365 5.047629 139.917856 -32.155514 -151.675173 -24.708643 34.377756 -67.934297 53.524859 4.930813 55.079811 -53.736393 -17.898084 46.878093 0.000000 0.000000 0.000000 -129.749440 32.574865 -73.738850 104.489077 21.402065 -6.291975 -68.903426 -78.418028 39.761870 0.000000 0.000000 0.000000 62.228332 22.489885 58.855290 -1.439176 -2.810075 -21.799295 -29.337144 -33.464418 41.792384 3.255428 -5.270690 -27.655038 0.000000 0.000000 0.000000 16.731370 1.912834 -2.601520 -13.729403 -1.970659 -1.482000 3.314732 -20.588130 2.864772 0.000000 0.000000 0.000000 -2.560445 4.009153 -16.615142 31.350760 -3.551596 -5.082514 2.374715 34.466081 -5.633022 0.000000 0.000000 0.000000 
-0.549506 0.622813 5.051487 143.868558 -34.406003 -156.587986 -32.474413 33.905199 -75.364468 73.957735 0.307888 51.308662 -62.365760 -24.491789 51.362353 0.000000 0.000000 0.000000 -123.500900 35.377548 -70.727167 108.999295 17.817430 2.306856 -49.082278 -79.185175 16.319762 0.000000 0.000000 0.000000 65.936418 22.215402 61.212913 -5.729134 -3.718253 -13.210904 -25.838070 -43.206388 35.559535 2.809775 0.115874 -23.199526 0.000000 0.000000 0.000000 11.084836 0.741780 3.032843 -11.630622 -6.667337 -1.516670 12.965313 -17.618987 1.471816 0.000000 0.000000 0.000000 4.101384 6.346192 -19.650326 31.279073 -5.448385 -4.009658 -1.714850 36.398790 -6.376533 0.000000 0.000000 0.000000 
-0.592923 0.606768 5.050663 149.324910 -36.899827 -162.404508 -34.990421 33.230034 -77.188772 86.214192 1.332318 45.293729 -75.447547 -27.833716 57.349061 0.000000 0.000000 0.000000 -104.892569 36.108178 -63.862520 112.670871 11.475326 18.800957 -1.673934 -77.433772 -42.311738 0.000000 0.000000 0.000000 71.739843 21.186920 70.123514 -5.654285 -3.949165 -19.144797 -33.535469 -48.400377 40.684242 3.683833 -1.075720 -21.386573 0.000000 0.000000 0.000000 9.677976 -3.181265 5.180242 -12.829884 -12.370129 -0.774862 18.450704 -20.480541 0.916015 0.000000 0.000000 0.000000 7.983433 6.807271 -25.655239 33.415838 -7.674431 -3.646978 1.632386 34.171170 -4.396667 0.000000 0.000000 0.000000 
-0.632826 0.597530 5.052164 156.008397 -38.057328 -168.013627 -43.340499 32.187887 -85.782324 101.030521 5.067394 35.264210 -86.488895 -32.151078 66.172303 0.000000 0.000000 0.000000 -88.170229 34.137695 -58.739490 115.918371 4.495380 32.085347 -10.575881 -84.359090 -30.996551 0.000000 0.000000 0.000000 77.330931 19.307054 78.682249 -4.447157 -3.156870 -19.876766 -41.451914 -55.655163 44.390539 5.519861 -2.318806 -21.368726 0.000000 0.000000 0.000000 5.562013 -6.704375 8.866192 -9.261443 -18.550633 -0.084403 24.805433 -22.040260 -0.586013 0.000000 0.000000 0.000000 13.308423 10.553177 -28.235183 32.922765 -9.393827 -2.456208 1.284352 32.445683 -3.424665 0.000000 0.000000 0.000000 
